<svg width="40" height="32" viewBox="0 0 40 32" fill="none" xmlns="http://www.w3.org/2000/svg">
<path d="M38 2V22H35C34.4477 22 34 22.4477 34 23C34 23.5523 34.4477 24 35 24H38C39.1046 24 40 23.1046 40 22V2C40 0.895432 39.1046 1.3113e-06 38 1.19209e-06L10 0C8.89543 0 8 0.895431 8 2V5C8 5.55228 8.44772 6 9 6C9.55228 6 10 5.55228 10 5V2L38 2Z" fill="#C8C8C8"/>
<path fill-rule="evenodd" clip-rule="evenodd" d="M22 22C24.2091 22 26 20.2091 26 18C26 15.7909 24.2091 14 22 14C19.7909 14 18 15.7909 18 18C18 20.2091 19.7909 22 22 22ZM22 20C23.1046 20 24 19.1046 24 18C24 16.8954 23.1046 16 22 16C20.8954 16 20 16.8954 20 18C20 19.1046 20.8954 20 22 20Z" fill="#C8C8C8"/>
<path fill-rule="evenodd" clip-rule="evenodd" d="M0 10C0 8.89543 0.895431 8 2 8H30C31.1046 8 32 8.89543 32 10V30C32 31.1046 31.1046 32 30 32H2C0.895431 32 0 31.1046 0 30V10ZM2 10H30V30H22.393L12.9179 21.2017C10.1588 18.6396 5.86735 18.7191 3.20497 21.3815L2 22.5863V10ZM2 25.4149V30H19.4538L11.557 22.6672C9.58618 20.8372 6.52088 20.894 4.61918 22.7957L2 25.4149Z" fill="#C8C8C8"/>
</svg>
